<?xml version="1.0" encoding="UTF-8"?>
<svg version="1.1" xmlns="http://www.w3.org/2000/svg" width="48" height="48">
<path d="M0 0 C0.7027002 -0.00191345 1.40540039 -0.0038269 2.12939453 -0.00579834 C3.61556354 -0.00715975 5.10174445 -0.00346632 6.58789062 0.00488281 C8.86615646 0.01558346 11.14363377 0.00498661 13.421875 -0.0078125 C14.86458508 -0.0064909 16.30729466 -0.00392849 17.75 0 C19.06742188 0.00225586 20.38484375 0.00451172 21.7421875 0.00683594 C24.875 0.265625 24.875 0.265625 26.875 2.265625 C26.875 3.255625 26.875 4.245625 26.875 5.265625 C27.865 5.595625 28.855 5.925625 29.875 6.265625 C29.89965392 10.80460205 29.91783789 15.34354043 29.92993164 19.88256836 C29.9349714 21.42782266 29.9418032 22.97307216 29.95043945 24.51831055 C29.96252076 26.73487529 29.96823173 28.95137718 29.97265625 31.16796875 C29.97781754 31.8627684 29.98297882 32.55756805 29.98829651 33.27342224 C29.98849277 34.9379183 29.93689129 36.60227999 29.875 38.265625 C28.875 39.265625 28.875 39.265625 25.82397461 39.37915039 C24.47508729 39.37899134 23.12619386 39.37330112 21.77734375 39.36328125 C20.71405602 39.36115883 20.71405602 39.36115883 19.62928772 39.35899353 C17.35698288 39.35337943 15.08477525 39.34082463 12.8125 39.328125 C11.27539204 39.32311181 9.73828255 39.31854859 8.20117188 39.31445312 C4.42574358 39.30340542 0.65038829 39.28613141 -3.125 39.265625 C-3.62 37.780625 -3.62 37.780625 -4.125 36.265625 C-6.10545559 35.60382653 -6.10545559 35.60382653 -8.125 35.265625 C-9.125 34.265625 -9.125 34.265625 -9.23852539 32.22436523 C-9.23328857 31.34981689 -9.22805176 30.47526855 -9.22265625 29.57421875 C-9.21943359 28.62998047 -9.21621094 27.68574219 -9.21289062 26.71289062 C-9.20451172 25.71966797 -9.19613281 24.72644531 -9.1875 23.703125 C-9.18298828 22.70603516 -9.17847656 21.70894531 -9.17382812 20.68164062 C-9.16200007 18.20957651 -9.14551849 15.73762982 -9.125 13.265625 C-8.135 13.265625 -7.145 13.265625 -6.125 13.265625 C-5.795 18.875625 -5.465 24.485625 -5.125 30.265625 C-5.03412109 27.68427734 -5.03412109 27.68427734 -4.94140625 25.05078125 C-4.85702109 22.8098864 -4.77237209 20.56900147 -4.6875 18.328125 C-4.64818359 17.19181641 -4.60886719 16.05550781 -4.56835938 14.88476562 C-4.52646484 13.80517578 -4.48457031 12.72558594 -4.44140625 11.61328125 C-4.40474854 10.61304932 -4.36809082 9.61281738 -4.33032227 8.58227539 C-4.125 6.265625 -4.125 6.265625 -3.125 5.265625 C-1.34630274 5.10798095 0.43818476 5.01461823 2.22265625 4.94921875 C3.19468994 4.91111084 4.16672363 4.87300293 5.16821289 4.83374023 C7.03401001 4.76908569 7.03401001 4.76908569 8.9375 4.703125 C12.876875 4.55875 16.81625 4.414375 20.875 4.265625 C12.295 4.265625 3.715 4.265625 -5.125 4.265625 C-5.455 6.905625 -5.785 9.545625 -6.125 12.265625 C-7.115 12.265625 -8.105 12.265625 -9.125 12.265625 C-9.17895478 10.64098658 -9.21777195 9.01583959 -9.25 7.390625 C-9.27320313 6.48570313 -9.29640625 5.58078125 -9.3203125 4.6484375 C-8.86135028 -0.95090162 -4.54749671 0.00778681 0 0 Z " fill="#8B5CF5" transform="translate(15.125,5.734375)"/>
<path d="M0 0 C0.7027002 -0.00191345 1.40540039 -0.0038269 2.12939453 -0.00579834 C3.61556354 -0.00715975 5.10174445 -0.00346632 6.58789062 0.00488281 C8.86615646 0.01558346 11.14363377 0.00498661 13.421875 -0.0078125 C14.86458508 -0.0064909 16.30729466 -0.00392849 17.75 0 C19.06742188 0.00225586 20.38484375 0.00451172 21.7421875 0.00683594 C24.875 0.265625 24.875 0.265625 26.875 2.265625 C27.10205078 4.32861328 27.10205078 4.32861328 27.0703125 6.8359375 C27.06386719 7.73183594 27.05742188 8.62773437 27.05078125 9.55078125 C27.03402344 10.48792969 27.01726563 11.42507812 27 12.390625 C26.99097656 13.33550781 26.98195312 14.28039063 26.97265625 15.25390625 C26.94904522 17.59139792 26.91611516 19.92838623 26.875 22.265625 C25.885 22.265625 24.895 22.265625 23.875 22.265625 C23.545 16.655625 23.215 11.045625 22.875 5.265625 C20.16098706 3.90861853 18.02653684 4.1532389 14.9921875 4.16796875 C13.24228516 4.17280273 13.24228516 4.17280273 11.45703125 4.17773438 C10.23371094 4.18611328 9.01039062 4.19449219 7.75 4.203125 C6.51894531 4.20763672 5.28789062 4.21214844 4.01953125 4.21679688 C0.97130608 4.2286117 -2.07682314 4.24508472 -5.125 4.265625 C-5.455 6.905625 -5.785 9.545625 -6.125 12.265625 C-7.115 12.265625 -8.105 12.265625 -9.125 12.265625 C-9.17895478 10.64098658 -9.21777195 9.01583959 -9.25 7.390625 C-9.27320313 6.48570313 -9.29640625 5.58078125 -9.3203125 4.6484375 C-8.86135028 -0.95090162 -4.54749671 0.00778681 0 0 Z " fill="#F0F0F2" transform="translate(15.125,5.734375)"/>
<path d="M0 0 C0.99 0 1.98 0 3 0 C3.06058594 1.20398438 3.12117187 2.40796875 3.18359375 3.6484375 C3.26799732 5.22397077 3.35264541 6.79949096 3.4375 8.375 C3.47681641 9.1690625 3.51613281 9.963125 3.55664062 10.78125 C3.68893404 15.02601221 3.68893404 15.02601221 5 19 C13.91 19 22.82 19 32 19 C32.33 17.02 32.66 15.04 33 13 C33.99 13 34.98 13 36 13 C36.36350794 19.42197362 36.36350794 19.42197362 34.92602539 21.70776367 C31.99421078 23.6748184 29.4934718 23.37148845 25.99609375 23.36328125 C24.97745995 23.36402901 24.97745995 23.36402901 23.93824768 23.36479187 C22.5051073 23.36245453 21.07196257 23.35274586 19.63891602 23.33618164 C17.44184831 23.31254678 15.245991 23.31562767 13.04882812 23.32226562 C2.27914633 23.27914633 2.27914633 23.27914633 0 21 C-0.22705078 18.84521484 -0.22705078 18.84521484 -0.1953125 16.2109375 C-0.18886719 15.26992188 -0.18242188 14.32890625 -0.17578125 13.359375 C-0.15902344 12.37453125 -0.14226563 11.3896875 -0.125 10.375 C-0.11597656 9.38242187 -0.10695313 8.38984375 -0.09765625 7.3671875 C-0.07404116 4.91121866 -0.04110799 2.45572832 0 0 Z " fill="#EFEEF2" transform="translate(6,19)"/>
<path d="M0 0 C-0.89305607 4.93495672 -3.86601017 7.38097864 -7.3125 10.8125 C-7.89451172 11.42287109 -8.47652344 12.03324219 -9.07617188 12.66210938 C-9.64529297 13.23380859 -10.21441406 13.80550781 -10.80078125 14.39453125 C-11.31809814 14.91893799 -11.83541504 15.44334473 -12.3684082 15.98364258 C-14 17 -14 17 -16.02807617 16.8112793 C-19.09873029 15.54796574 -20.86569493 13.49002258 -23 11 C-23 10.01 -23 9.02 -23 8 C-19.62189888 8.60323234 -17.67744188 9.90192055 -15 12 C-14.16855469 11.13375 -13.33710938 10.2675 -12.48046875 9.375 C-11.38321294 8.24960943 -10.28553466 7.12463066 -9.1875 6 C-8.64029297 5.42765625 -8.09308594 4.8553125 -7.52929688 4.265625 C-3.33984375 0 -3.33984375 0 0 0 Z " fill="#E0D9F2" transform="translate(36,16)"/>
</svg>
